<?xml version="1.0" encoding="UTF-8"?>
<svg id="Capa_2" data-name="Capa 2" xmlns="http://www.w3.org/2000/svg" viewBox="0 0 1253.54 261.41">
  <defs>
    <style>
      .cls-1 {
        fill: #fff;
      }
    </style>
  </defs>
  <g id="Capa_1-2" data-name="Capa 1">
    <g>
      <g id="_2023_EAPZ_Logo-RGB_V3-FC" data-name=" 2023 EAPZ Logo-RGB V3-FC">
        <path id="Trazado_63550" data-name="Trazado 63550" class="cls-1" d="M99.67,167.67c-8.97,8.97-24.32-4.25-13.93-14.64l75.32-75.31c3.55-3.54,4.49-5.9,4.49-13.23v-6.85c.16-4.53-3.38-8.34-7.91-8.5-.12,0-.24,0-.36,0H21.99C10.89,49.14.03,59.3.03,70.86v58.55c-.2,1.2.61,2.34,1.82,2.54.72.12,1.46-.13,1.96-.66l35.18-35.18c3.69-3.82,9.65-4.33,13.93-1.18,4.53,3.4,5.45,9.82,2.05,14.35-.4.53-.85,1.02-1.34,1.47L6.4,157.05C2.33,160.82.01,166.13.03,171.69v27.62c0,11.8,9.22,15.11,14.4,15.11h129.15c12.04,0,21.96-8.97,21.96-23.85v-82.88c0-2.36-2.59-2.36-3.78-1.18l-62.1,61.15Z"/>
        <g id="Grupo_28719" data-name="Grupo 28719">
          <g id="Group_28566-2" data-name="Group 28566-2">
            <path id="Path_62928-2" data-name="Path 62928-2" class="cls-1" d="M718.93,145.75c1.34-.77,2.86-1.16,4.4-1.14,1.56-.02,3.1.38,4.47,1.14,1.32.73,2.41,1.8,3.18,3.1,2.38,4.1.99,9.35-3.11,11.73-.02.01-.05.03-.07.04-1.36.76-2.9,1.14-4.46,1.13-1.54.02-3.06-.37-4.4-1.13-1.31-.72-2.4-1.78-3.16-3.06-.78-1.3-1.18-2.79-1.17-4.3-.03-3.1,1.63-5.98,4.33-7.5M726.79,147.31c-1.05-.59-2.24-.9-3.45-.88-1.19-.01-2.37.29-3.41.88-1.01.58-1.84,1.42-2.4,2.44-.59,1.07-.89,2.27-.88,3.49-.01,1.19.29,2.37.88,3.4.57,1,1.4,1.84,2.4,2.41,2.13,1.17,4.72,1.17,6.85,0,1.01-.57,1.84-1.41,2.4-2.43,1.17-2.15,1.17-4.74,0-6.89-.56-1.01-1.4-1.85-2.4-2.43M726.36,149.37c.65.54,1.01,1.36.98,2.21.01.59-.17,1.17-.51,1.65-.36.49-.87.85-1.45,1.04l2.04,3.59h-2.24l-1.79-3.18h-1.3v3.17h-2.04v-9.29h3.67c.95-.05,1.89.24,2.65.82M723.6,153c.43.02.85-.11,1.18-.38.3-.26.46-.64.45-1.04.02-.38-.13-.75-.43-1-.35-.25-.78-.37-1.21-.35h-1.5v2.77h1.51Z"/>
          </g>
          <g id="Grupo_28718" data-name="Grupo 28718">
            <path id="Trazado_63551" data-name="Trazado 63551" class="cls-1" d="M253.05,90.23c0,5.74,1.11,10.06,3.34,12.96,2.23,2.91,5.74,4.36,10.53,4.35,4.79,0,8.32-1.45,10.58-4.35,2.26-2.9,3.39-7.22,3.39-12.96v-41.11h15.19v40.3c0,10.13-2.48,17.86-7.44,23.19-4.96,5.33-12.2,8-21.72,8-9.52,0-16.74-2.67-21.67-8-4.93-5.33-7.39-13.06-7.39-23.19v-40.3h15.19v41.11h.01Z"/>
            <path id="Trazado_63552" data-name="Trazado 63552" class="cls-1" d="M357.34,91.75v28.25h-14.28v-27.44c0-8.98-3.51-13.47-10.53-13.47-3.3-.18-6.49,1.21-8.6,3.75-2.2,3.05-3.27,6.78-3.04,10.53v26.63h-14.27v-52.04h12.45l1.32,6.48c1.79-2.2,4.03-3.98,6.58-5.21,2.99-1.34,6.24-1.98,9.52-1.88,5.55-.2,10.95,1.85,14.98,5.67,3.91,3.78,5.87,10.03,5.87,18.74h0Z"/>
            <path id="Trazado_63553" data-name="Trazado 63553" class="cls-1" d="M381.75,54.29c.05,2.16-.79,4.25-2.33,5.77-1.55,1.55-3.68,2.39-5.87,2.33-2.21.06-4.34-.78-5.92-2.33-1.57-1.51-2.43-3.6-2.38-5.77-.06-2.16.81-4.24,2.38-5.72,1.59-1.52,3.72-2.34,5.92-2.28,2.18-.07,4.3.75,5.87,2.28,1.55,1.5,2.39,3.57,2.33,5.72ZM380.63,67.96v52.05h-14.28v-52.05h14.28Z"/>
            <path id="Trazado_63554" data-name="Trazado 63554" class="cls-1" d="M400.78,67.96l12.56,37.46,12.35-37.46h14.98l-18.73,52.05h-17.72l-18.73-52.05h15.29Z"/>
            <path id="Trazado_63555" data-name="Trazado 63555" class="cls-1" d="M453.89,70.64c4.22-2.26,8.95-3.39,13.73-3.29,4.82-.09,9.59.97,13.92,3.09,3.9,1.95,7.17,4.97,9.41,8.71,3.08,5.49,4.17,11.88,3.08,18.08h-37.77v.41c.14,3.3,1.43,6.46,3.64,8.91,2.29,2.24,5.41,3.41,8.6,3.24,2.55.09,5.06-.56,7.24-1.88,1.94-1.27,3.3-3.25,3.8-5.52h14.07c-.52,3.39-1.87,6.59-3.95,9.32-2.18,2.84-5.03,5.08-8.31,6.53-3.73,1.65-7.77,2.46-11.85,2.38-5.2.13-10.35-.98-15.03-3.24-4.1-2.04-7.48-5.27-9.72-9.27-2.33-4.3-3.5-9.13-3.39-14.02-.11-4.91,1.02-9.77,3.29-14.12,2.11-3.93,5.31-7.17,9.22-9.32h0ZM476.27,80.57c-2.3-1.78-5.15-2.69-8.05-2.58-2.86-.11-5.66.85-7.85,2.68-2.15,1.83-3.51,4.43-3.8,7.24h23.59c-.3-2.86-1.7-5.49-3.9-7.35h0Z"/>
            <path id="Trazado_63556" data-name="Trazado 63556" class="cls-1" d="M533.92,80.91h-5.67c-3.38-.28-6.69,1.07-8.91,3.64-2.03,2.89-3.03,6.39-2.84,9.92v25.52h-14.27v-52.05h12.96l1.32,7.8c1.39-2.41,3.38-4.41,5.77-5.82,2.85-1.45,6.02-2.13,9.22-1.98h2.42v12.96h0Z"/>
            <path id="Trazado_63557" data-name="Trazado 63557" class="cls-1" d="M554.28,108.26c2.31,1.5,5.04,2.24,7.79,2.13,2.48.14,4.96-.37,7.19-1.47,1.62-.77,2.65-2.41,2.63-4.2.08-1.15-.37-2.27-1.22-3.04-1.01-.76-2.19-1.27-3.44-1.47-1.48-.31-3.92-.66-7.29-1.06-3.87-.46-7.7-1.24-11.44-2.33-2.79-.79-5.31-2.33-7.29-4.46-1.9-2.26-2.88-5.15-2.73-8.1-.05-3.21.92-6.35,2.79-8.96,2-2.71,4.72-4.79,7.85-6.02,3.7-1.48,7.66-2.2,11.64-2.13,6.05-.22,12.02,1.37,17.16,4.56,4.21,2.73,6.84,7.34,7.04,12.35h-13.57c-.23-2-1.37-3.78-3.09-4.81-4.22-2.37-9.33-2.5-13.67-.36-1.51.78-2.47,2.34-2.48,4.05-.07,1.08.43,2.12,1.32,2.73,1.05.67,2.22,1.12,3.44,1.32,1.41.27,3.78.57,7.09.91,5.63.41,11.12,1.94,16.15,4.51,3.75,2.19,5.62,5.95,5.62,11.28.05,3.22-1,6.37-2.99,8.91-2.17,2.7-5.05,4.74-8.31,5.92-3.94,1.45-8.11,2.15-12.3,2.07-6.23.28-12.39-1.4-17.62-4.81-4.38-2.94-7.06-7.83-7.19-13.11h13.57c.19,2.27,1.43,4.33,3.34,5.57h.01Z"/>
            <path id="Trazado_63558" data-name="Trazado 63558" class="cls-1" d="M609.36,54.29c.05,2.16-.79,4.25-2.33,5.77-1.55,1.55-3.68,2.39-5.87,2.33-2.21.06-4.34-.78-5.92-2.33-1.57-1.51-2.43-3.6-2.38-5.77-.06-2.16.81-4.24,2.38-5.72,1.59-1.52,3.72-2.34,5.92-2.28,2.18-.07,4.3.75,5.87,2.28,1.55,1.5,2.39,3.57,2.33,5.72ZM608.24,67.96v52.05h-14.28v-52.05h14.28Z"/>
            <path id="Trazado_63559" data-name="Trazado 63559" class="cls-1" d="M670.21,120h-12.45l-1.41-7.19c-3.79,5.11-9.85,8.02-16.2,7.8-4.34.07-8.62-1.07-12.35-3.29-3.69-2.24-6.66-5.49-8.55-9.37-2.13-4.38-3.19-9.2-3.09-14.07-.11-4.82.95-9.6,3.09-13.92,1.92-3.86,4.91-7.1,8.6-9.32,3.75-2.21,8.05-3.35,12.4-3.29,6.07-.31,11.91,2.33,15.69,7.09v-25.32h14.28v70.88ZM656.14,94.08c.19-3.94-1.03-7.82-3.44-10.94-2.25-2.75-5.66-4.28-9.22-4.15-3.56-.13-6.99,1.41-9.27,4.15-2.43,3.07-3.67,6.92-3.49,10.83-.18,3.91,1.06,7.76,3.49,10.84,4.56,5.12,12.41,5.57,17.53,1,.34-.3.66-.62.96-.95,2.4-3.06,3.63-6.89,3.44-10.78h0Z"/>
            <path id="Trazado_63560" data-name="Trazado 63560" class="cls-1" d="M731.37,120h-7.29c-6.54,0-9.75-2.84-9.62-8.51-1.72,2.81-4.12,5.14-6.99,6.78-3.09,1.63-6.54,2.43-10.03,2.33-4.99.24-9.91-1.16-14.02-4-3.53-2.65-5.53-6.87-5.32-11.28-.25-5.03,2.06-9.84,6.13-12.81,4.09-3,10.01-4.51,17.77-4.51h10.33v-2.53c.08-2.19-.9-4.28-2.63-5.62-2.06-1.48-4.56-2.2-7.09-2.07-2.29-.1-4.55.5-6.48,1.72-1.63,1.05-2.73,2.75-3.04,4.66h-13.77c.29-5.02,2.91-9.61,7.09-12.4,5.06-3.16,10.96-4.7,16.91-4.4,7.02,0,13.05,1.62,17.06,4.86,4.12,3.47,6.35,8.69,6.02,14.07v18.33c-.11.95.18,1.91.81,2.63.73.53,1.63.78,2.53.71h1.62v12.05h.01ZM701.9,97.52c-2.44-.14-4.86.48-6.93,1.77-1.63,1.14-2.57,3.03-2.48,5.01-.06,1.7.71,3.33,2.07,4.35,1.64,1.16,3.62,1.73,5.62,1.62,3.25.17,6.42-.98,8.81-3.19,2.23-2.28,3.43-5.37,3.34-8.55v-1.01h-10.43,0Z"/>
            <path id="Trazado_63561" data-name="Trazado 63561" class="cls-1" d="M788.98,120h-12.45l-1.41-7.19c-3.79,5.11-9.85,8.02-16.2,7.8-4.34.07-8.62-1.07-12.35-3.29-3.69-2.24-6.66-5.49-8.55-9.37-2.13-4.38-3.19-9.2-3.09-14.07-.11-4.82.95-9.6,3.09-13.92,1.92-3.86,4.91-7.1,8.6-9.32,3.75-2.21,8.05-3.35,12.4-3.29,6.07-.31,11.91,2.33,15.69,7.09v-25.32h14.28v70.88ZM774.91,94.08c.19-3.94-1.03-7.82-3.44-10.94-2.25-2.75-5.66-4.28-9.22-4.15-3.56-.13-6.99,1.41-9.27,4.15-2.43,3.07-3.67,6.92-3.49,10.84-.18,3.91,1.06,7.76,3.49,10.84,4.56,5.12,12.41,5.57,17.53,1,.34-.3.66-.62.96-.95,2.4-3.06,3.63-6.89,3.44-10.78h0Z"/>
            <path id="Trazado_63562" data-name="Trazado 63562" class="cls-1" d="M292.24,143.62v10.03l-36.35,47.9h37.26v12.96h-58.12v-10.03l36.35-47.9h-35.45v-12.96h56.31Z"/>
            <path id="Trazado_63563" data-name="Trazado 63563" class="cls-1" d="M351.58,214.5h-7.29c-6.55,0-9.75-2.84-9.62-8.51-1.72,2.81-4.13,5.14-6.99,6.78-3.08,1.63-6.54,2.43-10.03,2.33-4.99.24-9.91-1.16-14.02-4-3.53-2.65-5.53-6.87-5.32-11.28-.25-5.03,2.06-9.84,6.13-12.81,4.09-3.01,10.01-4.51,17.77-4.51h10.33v-2.53c.08-2.19-.9-4.28-2.63-5.62-2.06-1.48-4.56-2.2-7.09-2.07-2.28-.1-4.54.5-6.48,1.72-1.63,1.05-2.73,2.75-3.04,4.66h-13.78c.29-5.02,2.91-9.61,7.09-12.4,5.06-3.16,10.96-4.7,16.91-4.4,7.02,0,13.05,1.62,17.06,4.86,4.12,3.47,6.35,8.69,6.02,14.07v18.33c-.11.95.18,1.91.81,2.63.73.53,1.63.78,2.53.71h1.62v12.06h.02ZM322.11,192.02c-2.44-.14-4.86.48-6.93,1.77-1.63,1.13-2.57,3.03-2.48,5.01-.06,1.7.71,3.33,2.07,4.35,1.64,1.16,3.62,1.73,5.62,1.62,3.25.17,6.42-.98,8.81-3.19,2.23-2.28,3.43-5.37,3.34-8.55v-1.01h-10.43,0Z"/>
            <path id="Trazado_63564" data-name="Trazado 63564" class="cls-1" d="M438.65,185.95v28.66h-14.28v-29.15c0-7.9-3-11.85-9.01-11.85-2.87-.1-5.63,1.11-7.49,3.29-2.03,2.61-3.04,5.87-2.84,9.16v28.55h-14.28v-29.15c0-7.9-3.04-11.85-9.11-11.85-2.88-.11-5.63,1.15-7.44,3.39-1.98,2.63-2.96,5.88-2.79,9.16v28.45h-14.28v-52.16h12.45l1.32,6.48c1.68-2.17,3.83-3.93,6.28-5.16,2.86-1.31,5.97-1.96,9.11-1.92,7.43,0,12.59,2.94,15.49,8.81,1.86-2.8,4.43-5.06,7.44-6.53,3.27-1.56,6.86-2.34,10.48-2.28,5.14-.19,10.12,1.84,13.67,5.57,3.51,3.72,5.27,9.89,5.27,18.53h0Z"/>
            <path id="Trazado_63565" data-name="Trazado 63565" class="cls-1" d="M449.03,202.45c-4.52-8.77-4.52-19.18,0-27.94,2.21-4,5.56-7.26,9.62-9.37,9.12-4.39,19.74-4.39,28.86,0,4.06,2.11,7.41,5.37,9.62,9.37,4.52,8.78,4.52,19.21,0,27.99-2.23,3.98-5.57,7.22-9.62,9.32-9.12,4.39-19.74,4.39-28.86,0-4.06-2.11-7.41-5.36-9.62-9.37ZM486.04,188.48c.18-3.91-1.06-7.76-3.49-10.84-2.34-2.77-5.84-4.31-9.46-4.15-3.6-.16-7.07,1.38-9.37,4.15-4.66,6.47-4.66,15.2,0,21.67,2.31,2.76,5.77,4.29,9.37,4.15,3.62.14,7.11-1.39,9.46-4.15,2.43-3.07,3.67-6.92,3.49-10.84h0Z"/>
            <path id="Trazado_63566" data-name="Trazado 63566" class="cls-1" d="M540.1,175.42h-5.67c-3.38-.28-6.7,1.07-8.91,3.64-2.03,2.89-3.03,6.39-2.84,9.92v25.52h-14.28v-52.04h12.96l1.32,7.8c1.39-2.41,3.38-4.41,5.77-5.82,2.85-1.45,6.02-2.13,9.22-1.98h2.43v12.96h0Z"/>
            <path id="Trazado_63567" data-name="Trazado 63567" class="cls-1" d="M596.2,214.5h-7.29c-6.54,0-9.75-2.84-9.62-8.51-1.72,2.81-4.12,5.14-6.99,6.78-3.09,1.63-6.54,2.43-10.03,2.33-4.99.24-9.91-1.16-14.02-4-3.54-2.65-5.53-6.87-5.32-11.28-.25-5.03,2.06-9.84,6.13-12.81,4.09-3,10.01-4.51,17.77-4.51h10.33v-2.53c.08-2.19-.9-4.28-2.63-5.62-2.06-1.48-4.56-2.2-7.09-2.07-2.28-.1-4.54.5-6.48,1.72-1.63,1.05-2.73,2.75-3.04,4.66h-13.77c.29-5.02,2.91-9.61,7.09-12.4,5.06-3.16,10.96-4.7,16.91-4.4,7.02,0,13.05,1.62,17.06,4.86,4.02,3.24,6.02,7.93,6.02,14.07v18.33c-.11.95.18,1.91.81,2.63.73.53,1.63.78,2.53.71h1.62v12.06h0ZM566.73,192.02c-2.44-.14-4.86.48-6.93,1.77-1.63,1.14-2.57,3.03-2.48,5.01-.06,1.7.71,3.33,2.07,4.35,1.64,1.16,3.62,1.73,5.62,1.62,3.25.17,6.42-.98,8.81-3.19,2.23-2.28,3.43-5.37,3.34-8.55v-1.01h-10.43,0Z"/>
            <path id="Trazado_63568" data-name="Trazado 63568" class="cls-1" d="M652.5,186.26v28.25h-14.28v-27.45c0-8.98-3.51-13.47-10.53-13.47-3.3-.18-6.49,1.21-8.6,3.75-2.2,3.05-3.27,6.78-3.04,10.53v26.63h-14.27v-52.05h12.45l1.32,6.48c1.79-2.2,4.03-3.98,6.58-5.21,2.99-1.34,6.24-1.98,9.52-1.88,5.55-.2,10.95,1.85,14.98,5.67,3.91,3.78,5.87,10.02,5.87,18.73v.02Z"/>
            <path id="Trazado_63569" data-name="Trazado 63569" class="cls-1" d="M662.87,202.45c-4.52-8.77-4.52-19.18,0-27.94,2.21-4,5.56-7.26,9.62-9.37,9.12-4.39,19.74-4.39,28.86,0,4.06,2.11,7.41,5.37,9.62,9.37,4.52,8.78,4.52,19.21,0,27.99-2.23,3.98-5.57,7.22-9.62,9.32-9.12,4.39-19.74,4.39-28.86,0-4.06-2.11-7.41-5.36-9.62-9.37ZM699.88,188.48c.18-3.91-1.06-7.76-3.49-10.84-2.34-2.77-5.84-4.31-9.46-4.15-3.6-.16-7.06,1.38-9.37,4.15-4.66,6.47-4.66,15.2,0,21.67,2.31,2.76,5.77,4.29,9.37,4.15,3.62.14,7.11-1.39,9.46-4.15,2.43-3.07,3.67-6.92,3.49-10.84h0Z"/>
          </g>
        </g>
      </g>
      <rect class="cls-1" x="871.66" y="10.18" width="3.16" height="241.04"/>
      <g>
        <g>
          <path class="cls-1" d="M1218.95,198.98l-5.01,2.7h0s-115.57,0-115.57,0v-38.96h-4.69v-17.77h2.11l-10.05-6.8v-4.98h-.39v-4.75c.3-.09.52-.37.52-.7,0-.41-.33-.74-.74-.74s-.74.33-.74.74c0,.33.22.6.52.7v4.75h-.39v4.87l-9.95,6.91s.88,0,2.31,0v17.77h-5.03v29.62l-21.48-12.3-26.17,15.37s1.38,0,3.78,0v11.19h-27.71v.11l-.3-.11-29.16,12.08c-.07,0,2.57,0,6.77,0v17.08h272.87v-19.94h3.07l-34.59-16.84Z"/>
          <path class="cls-1" d="M1197.98,110.61s-30.05-27.15-71.81-5.03v-47.96h69.87v-13.37h-81.9v67.74s9.51,9.59,9.32,14.99c0,0,35.52-37.31,72.59.74,0,0,29.11,30.91-.97,69.48h16.3s31.44-46.81-13.39-86.58Z"/>
          <path class="cls-1" d="M1084.66,96.06c14.37-9.3,23.89-25.46,23.89-43.85,0-28.83-23.37-52.21-52.21-52.21s-52.21,23.37-52.21,52.21c0,18.22,9.34,34.26,23.49,43.6-4.24,2.12-63.27,33.06-33.1,100.16h-.01c.64,2.12,3.34,6.16,3.34,6.16h17.18c-1.92-1.93-3.22-3.78-3.96-4.94h.12s-33.94-46.12,9.44-79.68c10.85-8.4,24.13-13.27,37.85-13.08,13.46.19,30.25,4.81,43.55,22.54,0,0,26.4,35.67-.58,70.22h15.91s35.84-65.19-32.68-101.13ZM1056.34,91.1c-21.33,0-38.62-17.29-38.62-38.62s17.29-38.62,38.62-38.62,38.62,17.29,38.62,38.62-17.29,38.62-38.62,38.62Z"/>
        </g>
        <g>
          <path class="cls-1" d="M975.83,261.24l7.39-20.2h5.2l7.33,20.2h-4.65l-1.56-4.42h-7.68l-1.56,4.42h-4.47ZM983.02,253.33h5.34l-2.68-7.68-2.66,7.68Z"/>
          <path class="cls-1" d="M1006.25,261.24v-20.2h3.93l8.57,12.73v-12.73h4.27v20.2h-3.95l-8.57-12.73v12.73h-4.24Z"/>
          <path class="cls-1" d="M1035.11,241.03h4.33v20.2h-4.33v-20.2Z"/>
          <path class="cls-1" d="M1049.8,241.03h4.59l4.85,14.95,4.96-14.95h4.47l-6.84,20.2h-5.17l-6.87-20.2Z"/>
          <path class="cls-1" d="M1079.07,241.03h13.56v3.72h-9.24v4.53h7.5v3.55h-7.5v4.68h9.55v3.72h-13.88v-20.2Z"/>
          <path class="cls-1" d="M1104.21,241.03h8.23c4.44,0,7.42,2.63,7.42,6.72,0,2.6-1.36,4.68-3.46,5.69l3.98,7.79h-4.79l-3.41-6.78h-3.64v6.78h-4.33v-20.2ZM1108.53,244.64v6.2h3.55c2.05,0,3.35-1.21,3.35-3.09s-1.3-3.12-3.35-3.12h-3.55Z"/>
          <path class="cls-1" d="M1134.48,254.66c.14,1.96,1.7,3.32,4.19,3.32,1.99,0,3.46-.87,3.46-2.45,0-1.7-1.64-2.05-5.02-2.71-3.41-.63-6.41-1.73-6.41-5.83,0-3.58,2.97-6.12,7.53-6.12s7.79,2.48,7.85,6.35h-4.24c-.2-1.7-1.5-2.89-3.61-2.89-1.85,0-3.17.78-3.17,2.34,0,1.64,1.59,1.99,4.94,2.63,3.46.63,6.52,1.67,6.49,5.74-.03,3.78-3.15,6.38-7.88,6.38-5.14,0-8.34-2.71-8.37-6.81l4.24.06Z"/>
          <path class="cls-1" d="M1155.4,261.24l7.39-20.2h5.2l7.33,20.2h-4.65l-1.56-4.42h-7.68l-1.56,4.42h-4.47ZM1162.59,253.33h5.34l-2.68-7.68-2.66,7.68Z"/>
          <path class="cls-1" d="M1185.82,241.03h8.23c4.44,0,7.42,2.63,7.42,6.72,0,2.6-1.36,4.68-3.46,5.69l3.98,7.79h-4.79l-3.41-6.78h-3.64v6.78h-4.33v-20.2ZM1190.15,244.64v6.2h3.55c2.05,0,3.35-1.21,3.35-3.09s-1.3-3.12-3.35-3.12h-3.55Z"/>
          <path class="cls-1" d="M1212.9,241.03h4.33v20.2h-4.33v-20.2Z"/>
          <path class="cls-1" d="M1238.52,261.41c-5.95,0-10.01-4.39-10.01-10.27s4.07-10.28,10.01-10.28,10.02,4.39,10.02,10.28-4.07,10.27-10.02,10.27ZM1238.52,257.74c3.38,0,5.57-2.8,5.57-6.61s-2.19-6.61-5.57-6.61-5.6,2.8-5.6,6.61,2.19,6.61,5.6,6.61Z"/>
        </g>
      </g>
    </g>
  </g>
</svg>